<?xml version="1.0" encoding="UTF-8" standalone="no"?>
<!-- Created with Inkscape (http://www.inkscape.org/) -->

<svg
   width="170.91486mm"
   height="165.53172mm"
   viewBox="0 0 170.91486 165.53172"
   version="1.1"
   id="svg5"
   inkscape:version="1.1.1 (3bf5ae0d25, 2021-09-20, custom)"
   sodipodi:docname="graph.svg"
   xmlns:inkscape="http://www.inkscape.org/namespaces/inkscape"
   xmlns:sodipodi="http://sodipodi.sourceforge.net/DTD/sodipodi-0.dtd"
   xmlns="http://www.w3.org/2000/svg"
   xmlns:svg="http://www.w3.org/2000/svg">
  <sodipodi:namedview
     id="namedview7"
     pagecolor="#ffffff"
     bordercolor="#666666"
     borderopacity="1.0"
     inkscape:pageshadow="2"
     inkscape:pageopacity="0.0"
     inkscape:pagecheckerboard="0"
     inkscape:document-units="mm"
     showgrid="false"
     inkscape:zoom="0.64052329"
     inkscape:cx="452.75481"
     inkscape:cy="184.22437"
     inkscape:window-width="2560"
     inkscape:window-height="1440"
     inkscape:window-x="0"
     inkscape:window-y="0"
     inkscape:window-maximized="1"
     inkscape:current-layer="path21188"
     fit-margin-top="0"
     fit-margin-left="0"
     fit-margin-right="0"
     fit-margin-bottom="0" />
  <defs
     id="defs2">
    <marker
       style="overflow:visible"
       id="marker1360"
       refX="0"
       refY="0"
       orient="auto"
       inkscape:stockid="DotM"
       inkscape:isstock="true">
      <path
         transform="matrix(0.4,0,0,0.4,2.96,0.4)"
         style="fill:context-stroke;fill-rule:evenodd;stroke:context-stroke;stroke-width:1pt"
         d="m -2.5,-1 c 0,2.76 -2.24,5 -5,5 -2.76,0 -5,-2.24 -5,-5 0,-2.76 2.24,-5 5,-5 2.76,0 5,2.24 5,5 z"
         id="path1358" />
    </marker>
    <marker
       style="overflow:visible"
       id="marker1350"
       refX="0"
       refY="0"
       orient="auto"
       inkscape:stockid="DotL"
       inkscape:isstock="true">
      <path
         transform="matrix(0.8,0,0,0.8,5.92,0.8)"
         style="fill:context-stroke;fill-rule:evenodd;stroke:context-stroke;stroke-width:1pt"
         d="m -2.5,-1 c 0,2.76 -2.24,5 -5,5 -2.76,0 -5,-2.24 -5,-5 0,-2.76 2.24,-5 5,-5 2.76,0 5,2.24 5,5 z"
         id="path1348" />
    </marker>
    <marker
       style="overflow:visible"
       id="marker1340"
       refX="0"
       refY="0"
       orient="auto"
       inkscape:stockid="DotM"
       inkscape:isstock="true">
      <path
         transform="matrix(0.4,0,0,0.4,2.96,0.4)"
         style="fill:context-stroke;fill-rule:evenodd;stroke:context-stroke;stroke-width:1pt"
         d="m -2.5,-1 c 0,2.76 -2.24,5 -5,5 -2.76,0 -5,-2.24 -5,-5 0,-2.76 2.24,-5 5,-5 2.76,0 5,2.24 5,5 z"
         id="path1338" />
    </marker>
    <marker
       style="overflow:visible"
       id="DotM"
       refX="0"
       refY="0"
       orient="auto"
       inkscape:stockid="DotM"
       inkscape:isstock="true">
      <path
         transform="matrix(0.4,0,0,0.4,2.96,0.4)"
         style="fill:context-stroke;fill-rule:evenodd;stroke:context-stroke;stroke-width:1pt"
         d="m -2.5,-1 c 0,2.76 -2.24,5 -5,5 -2.76,0 -5,-2.24 -5,-5 0,-2.76 2.24,-5 5,-5 2.76,0 5,2.24 5,5 z"
         id="path1116" />
    </marker>
    <marker
       style="overflow:visible"
       id="marker1322"
       refX="0"
       refY="0"
       orient="auto"
       inkscape:stockid="DotL"
       inkscape:isstock="true">
      <path
         transform="matrix(0.8,0,0,0.8,5.92,0.8)"
         style="fill:context-stroke;fill-rule:evenodd;stroke:context-stroke;stroke-width:1pt"
         d="m -2.5,-1 c 0,2.76 -2.24,5 -5,5 -2.76,0 -5,-2.24 -5,-5 0,-2.76 2.24,-5 5,-5 2.76,0 5,2.24 5,5 z"
         id="path1320" />
    </marker>
    <marker
       style="overflow:visible"
       id="DotL"
       refX="0"
       refY="0"
       orient="auto"
       inkscape:stockid="DotL"
       inkscape:isstock="true">
      <path
         transform="matrix(0.8,0,0,0.8,5.92,0.8)"
         style="fill:context-stroke;fill-rule:evenodd;stroke:context-stroke;stroke-width:1pt"
         d="m -2.5,-1 c 0,2.76 -2.24,5 -5,5 -2.76,0 -5,-2.24 -5,-5 0,-2.76 2.24,-5 5,-5 2.76,0 5,2.24 5,5 z"
         id="path1113" />
    </marker>
    <marker
       style="overflow:visible"
       id="DotM-6"
       refX="0"
       refY="0"
       orient="auto"
       inkscape:stockid="DotM"
       inkscape:isstock="true">
      <path
         transform="matrix(0.4,0,0,0.4,2.96,0.4)"
         style="fill:context-stroke;fill-rule:evenodd;stroke:context-stroke;stroke-width:1pt"
         d="m -2.5,-1 c 0,2.76 -2.24,5 -5,5 -2.76,0 -5,-2.24 -5,-5 0,-2.76 2.24,-5 5,-5 2.76,0 5,2.24 5,5 z"
         id="path1116-7" />
    </marker>
    <marker
       style="overflow:visible"
       id="marker1340-5"
       refX="0"
       refY="0"
       orient="auto"
       inkscape:stockid="DotM"
       inkscape:isstock="true">
      <path
         transform="matrix(0.4,0,0,0.4,2.96,0.4)"
         style="fill:context-stroke;fill-rule:evenodd;stroke:context-stroke;stroke-width:1pt"
         d="m -2.5,-1 c 0,2.76 -2.24,5 -5,5 -2.76,0 -5,-2.24 -5,-5 0,-2.76 2.24,-5 5,-5 2.76,0 5,2.24 5,5 z"
         id="path1338-3" />
    </marker>
    <marker
       style="overflow:visible"
       id="marker1360-5"
       refX="0"
       refY="0"
       orient="auto"
       inkscape:stockid="DotM"
       inkscape:isstock="true">
      <path
         transform="matrix(0.4,0,0,0.4,2.96,0.4)"
         style="fill:context-stroke;fill-rule:evenodd;stroke:context-stroke;stroke-width:1pt"
         d="m -2.5,-1 c 0,2.76 -2.24,5 -5,5 -2.76,0 -5,-2.24 -5,-5 0,-2.76 2.24,-5 5,-5 2.76,0 5,2.24 5,5 z"
         id="path1358-6" />
    </marker>
    <marker
       style="overflow:visible"
       id="DotM-9"
       refX="0"
       refY="0"
       orient="auto"
       inkscape:stockid="DotM"
       inkscape:isstock="true">
      <path
         transform="matrix(0.4,0,0,0.4,2.96,0.4)"
         style="fill:context-stroke;fill-rule:evenodd;stroke:context-stroke;stroke-width:1pt"
         d="m -2.5,-1 c 0,2.76 -2.24,5 -5,5 -2.76,0 -5,-2.24 -5,-5 0,-2.76 2.24,-5 5,-5 2.76,0 5,2.24 5,5 z"
         id="path1116-1" />
    </marker>
    <marker
       style="overflow:visible"
       id="marker1340-2"
       refX="0"
       refY="0"
       orient="auto"
       inkscape:stockid="DotM"
       inkscape:isstock="true">
      <path
         transform="matrix(0.4,0,0,0.4,2.96,0.4)"
         style="fill:context-stroke;fill-rule:evenodd;stroke:context-stroke;stroke-width:1pt"
         d="m -2.5,-1 c 0,2.76 -2.24,5 -5,5 -2.76,0 -5,-2.24 -5,-5 0,-2.76 2.24,-5 5,-5 2.76,0 5,2.24 5,5 z"
         id="path1338-7" />
    </marker>
    <marker
       style="overflow:visible"
       id="marker1360-0"
       refX="0"
       refY="0"
       orient="auto"
       inkscape:stockid="DotM"
       inkscape:isstock="true">
      <path
         transform="matrix(0.4,0,0,0.4,2.96,0.4)"
         style="fill:context-stroke;fill-rule:evenodd;stroke:context-stroke;stroke-width:1pt"
         d="m -2.5,-1 c 0,2.76 -2.24,5 -5,5 -2.76,0 -5,-2.24 -5,-5 0,-2.76 2.24,-5 5,-5 2.76,0 5,2.24 5,5 z"
         id="path1358-9" />
    </marker>
    <marker
       style="overflow:visible"
       id="DotM-60"
       refX="0"
       refY="0"
       orient="auto"
       inkscape:stockid="DotM"
       inkscape:isstock="true">
      <path
         transform="matrix(0.4,0,0,0.4,2.96,0.4)"
         style="fill:context-stroke;fill-rule:evenodd;stroke:context-stroke;stroke-width:1pt"
         d="m -2.5,-1 c 0,2.76 -2.24,5 -5,5 -2.76,0 -5,-2.24 -5,-5 0,-2.76 2.24,-5 5,-5 2.76,0 5,2.24 5,5 z"
         id="path1116-6" />
    </marker>
    <marker
       style="overflow:visible"
       id="marker1340-26"
       refX="0"
       refY="0"
       orient="auto"
       inkscape:stockid="DotM"
       inkscape:isstock="true">
      <path
         transform="matrix(0.4,0,0,0.4,2.96,0.4)"
         style="fill:context-stroke;fill-rule:evenodd;stroke:context-stroke;stroke-width:1pt"
         d="m -2.5,-1 c 0,2.76 -2.24,5 -5,5 -2.76,0 -5,-2.24 -5,-5 0,-2.76 2.24,-5 5,-5 2.76,0 5,2.24 5,5 z"
         id="path1338-1" />
    </marker>
    <marker
       style="overflow:visible"
       id="marker1360-8"
       refX="0"
       refY="0"
       orient="auto"
       inkscape:stockid="DotM"
       inkscape:isstock="true">
      <path
         transform="matrix(0.4,0,0,0.4,2.96,0.4)"
         style="fill:context-stroke;fill-rule:evenodd;stroke:context-stroke;stroke-width:1pt"
         d="m -2.5,-1 c 0,2.76 -2.24,5 -5,5 -2.76,0 -5,-2.24 -5,-5 0,-2.76 2.24,-5 5,-5 2.76,0 5,2.24 5,5 z"
         id="path1358-7" />
    </marker>
    <marker
       style="overflow:visible"
       id="DotM-2"
       refX="0"
       refY="0"
       orient="auto"
       inkscape:stockid="DotM"
       inkscape:isstock="true">
      <path
         transform="matrix(0.4,0,0,0.4,2.96,0.4)"
         style="fill:context-stroke;fill-rule:evenodd;stroke:context-stroke;stroke-width:1pt"
         d="m -2.5,-1 c 0,2.76 -2.24,5 -5,5 -2.76,0 -5,-2.24 -5,-5 0,-2.76 2.24,-5 5,-5 2.76,0 5,2.24 5,5 z"
         id="path1116-0" />
    </marker>
    <marker
       style="overflow:visible"
       id="marker1340-23"
       refX="0"
       refY="0"
       orient="auto"
       inkscape:stockid="DotM"
       inkscape:isstock="true">
      <path
         transform="matrix(0.4,0,0,0.4,2.96,0.4)"
         style="fill:context-stroke;fill-rule:evenodd;stroke:context-stroke;stroke-width:1pt"
         d="m -2.5,-1 c 0,2.76 -2.24,5 -5,5 -2.76,0 -5,-2.24 -5,-5 0,-2.76 2.24,-5 5,-5 2.76,0 5,2.24 5,5 z"
         id="path1338-75" />
    </marker>
    <marker
       style="overflow:visible"
       id="marker1360-9"
       refX="0"
       refY="0"
       orient="auto"
       inkscape:stockid="DotM"
       inkscape:isstock="true">
      <path
         transform="matrix(0.4,0,0,0.4,2.96,0.4)"
         style="fill:context-stroke;fill-rule:evenodd;stroke:context-stroke;stroke-width:1pt"
         d="m -2.5,-1 c 0,2.76 -2.24,5 -5,5 -2.76,0 -5,-2.24 -5,-5 0,-2.76 2.24,-5 5,-5 2.76,0 5,2.24 5,5 z"
         id="path1358-2" />
    </marker>
  </defs>
  <g
     inkscape:label="Layer 1"
     inkscape:groupmode="layer"
     id="layer1"
     transform="translate(-20.753668,-25.863029)">
    <g
       id="path1691">
      <path
         style="color:#000000;fill:#000000;fill-opacity:0;stroke-miterlimit:1;-inkscape-stroke:none"
         d="M 23.040709,189.08837 58.64401,133.9838 77.566235,178.86202 114.38364,73.188446 127.7794,144.54537 143.73053,91.125852 147.46524,162.68927 179.73935,44.944835"
         id="path1058" />
      <path
         style="color:#000000;fill:#ebcb8b;stroke-miterlimit:1;-inkscape-stroke:none"
         d="m 179.25781,44.8125 -31.45508,114.75 -3.57226,-68.462891 -0.97852,-0.117187 -15.36132,51.443358 -13.01563,-69.330077 -0.96289,-0.07227 -36.390626,104.445313 -18.416015,-43.67969 -0.88086,-0.0762 -35.603515,55.10352 0.839843,0.54296 35.089844,-54.30859 18.554688,44.00586 0.933593,-0.0293 36.199218,-103.90234 13.04883,69.51172 0.9707,0.0508 15.12305,-50.646484 3.58594,68.673824 0.98047,0.10743 32.27343,-117.746098 z"
         id="path1060" />
      <g
         id="g992">
        <g
           id="path1050">
          <path
             style="color:#000000;fill:#ebcb8b;fill-rule:evenodd;stroke-width:0.4pt;-inkscape-stroke:none"
             d="m 180.25748,43.05456 c 1.06473,0.291844 1.69199,1.39283 1.40015,2.457556 -0.29185,1.064727 -1.39283,1.691993 -2.45756,1.400148 -1.06472,-0.291844 -1.69199,-1.39283 -1.40015,-2.457556 0.29185,-1.064727 1.39283,-1.691993 2.45756,-1.400148 z"
             id="path1054" />
          <path
             style="color:#000000;fill:#ebcb8b;fill-rule:evenodd;-inkscape-stroke:none"
             d="m 180.32812,42.796875 c -1.20387,-0.329986 -2.45516,0.384016 -2.78515,1.587891 -0.32998,1.203876 0.38207,2.45517 1.58594,2.785156 1.20387,0.329986 2.45516,-0.384016 2.78515,-1.587891 0.32998,-1.203874 -0.38206,-2.455171 -1.58594,-2.785156 z M 180.1875,43.3125 c 0.92558,0.253702 1.46659,1.203331 1.21289,2.128906 -0.25371,0.925577 -1.20333,1.466594 -2.12891,1.212891 -0.92556,-0.253702 -1.46854,-1.203332 -1.21484,-2.128906 0.25371,-0.925578 1.20528,-1.466594 2.13086,-1.212891 z"
             id="path1056" />
        </g>
        <g
           id="path1042">
          <path
             style="color:#000000;fill:#ebcb8b;fill-rule:evenodd;stroke-width:0.4pt;-inkscape-stroke:none"
             d="m 149.41388,162.89995 c -0.11866,1.0976 -1.10578,1.8921 -2.20338,1.77343 -1.09761,-0.11866 -1.89211,-1.10578 -1.77344,-2.20339 0.11867,-1.0976 1.10578,-1.8921 2.20339,-1.77343 1.0976,0.11866 1.8921,1.10578 1.77343,2.20339 z"
             id="path1046" />
          <path
             style="color:#000000;fill:#ebcb8b;fill-rule:evenodd;-inkscape-stroke:none"
             d="m 147.66992,160.43164 c -1.24105,-0.13418 -2.36387,0.76872 -2.49805,2.00977 -0.13417,1.24105 0.76871,2.36388 2.00977,2.49804 1.24105,0.13418 2.36388,-0.77067 2.49805,-2.01172 0.13418,-1.24105 -0.76872,-2.36192 -2.00977,-2.49609 z m -0.0586,0.5293 c 0.95415,0.10315 1.64027,0.95599 1.53711,1.91015 -0.10315,0.95415 -0.95601,1.64027 -1.91016,1.53711 -0.95416,-0.10315 -1.63832,-0.95599 -1.53516,-1.91015 0.10317,-0.95416 0.95405,-1.64027 1.90821,-1.53711 z"
             id="path1048" />
        </g>
        <g
           id="path1034">
          <path
             style="color:#000000;fill:#ebcb8b;fill-rule:evenodd;stroke-width:0.4pt;-inkscape-stroke:none"
             d="m 145.67666,91.358574 c -0.13108,1.09619 -1.12713,1.879465 -2.22332,1.74838 -1.09619,-0.131084 -1.87946,-1.127133 -1.74838,-2.223323 0.13109,-1.09619 1.12713,-1.879464 2.22332,-1.74838 1.09619,0.131084 1.87947,1.127133 1.74838,2.223323 z"
             id="path1038" />
          <path
             style="color:#000000;fill:#ebcb8b;fill-rule:evenodd;-inkscape-stroke:none"
             d="m 143.95898,88.871094 c -1.23945,-0.148216 -2.3713,0.741019 -2.51953,1.980468 -0.14821,1.239451 0.74297,2.371316 1.98242,2.519532 1.23946,0.148216 2.37133,-0.741017 2.51954,-1.980469 0.14822,-1.239453 -0.74297,-2.371316 -1.98243,-2.519531 z m -0.0625,0.529297 c 0.95293,0.113952 1.62959,0.972856 1.51563,1.925781 -0.11395,0.952925 -0.97481,1.629578 -1.92774,1.515625 -0.95292,-0.113952 -1.62762,-0.972854 -1.51367,-1.925781 0.11396,-0.952929 0.97286,-1.629578 1.92578,-1.515625 z"
             id="path1040" />
        </g>
        <g
           id="path1026">
          <path
             style="color:#000000;fill:#ebcb8b;fill-rule:evenodd;stroke-width:0.4pt;-inkscape-stroke:none"
             d="m 129.73672,144.64784 c -0.0577,1.10249 -0.99933,1.95042 -2.10182,1.8927 -1.10249,-0.0577 -1.95043,-0.99933 -1.89271,-2.10182 0.0577,-1.10249 0.99933,-1.95042 2.10182,-1.89271 1.10249,0.0577 1.95042,0.99933 1.89271,2.10183 z"
             id="path1030" />
          <path
             style="color:#000000;fill:#ebcb8b;fill-rule:evenodd;-inkscape-stroke:none"
             d="m 127.85742,142.2793 c -1.24657,-0.0653 -2.31562,0.89795 -2.38086,2.14453 -0.0653,1.24657 0.89795,2.31757 2.14453,2.38281 1.24658,0.0653 2.31758,-0.89795 2.38282,-2.14453 0.0653,-1.24658 -0.89991,-2.31757 -2.14649,-2.38281 z m -0.0273,0.5332 c 0.9584,0.0502 1.69079,0.86385 1.64062,1.82227 -0.0502,0.95839 -0.86386,1.68884 -1.82226,1.63867 -0.9584,-0.0502 -1.6908,-0.86191 -1.64063,-1.82032 0.0502,-0.95839 0.86386,-1.69079 1.82227,-1.64062 z"
             id="path1032" />
        </g>
        <g
           id="path1018">
          <path
             style="color:#000000;fill:#ebcb8b;fill-rule:evenodd;stroke-width:0.4pt;-inkscape-stroke:none"
             d="m 116.33815,73.335001 c -0.0825,1.10091 -1.04303,1.927405 -2.14394,1.844855 -1.10091,-0.08255 -1.92741,-1.043038 -1.84486,-2.143947 0.0825,-1.100909 1.04304,-1.927405 2.14395,-1.844855 1.10091,0.08255 1.9274,1.043038 1.84485,2.143947 z"
             id="path1022" />
          <path
             style="color:#000000;fill:#ebcb8b;fill-rule:evenodd;-inkscape-stroke:none"
             d="m 114.51367,70.925781 c -1.24479,-0.09334 -2.3364,0.845041 -2.42969,2.089844 -0.0933,1.244788 0.84506,2.336349 2.08985,2.429687 1.24479,0.09334 2.3364,-0.845041 2.42969,-2.089843 0.0933,-1.244787 -0.84506,-2.336349 -2.08985,-2.429688 z m -0.041,0.53125 c 0.95703,0.07176 1.67137,0.900393 1.59961,1.857422 -0.0717,0.957016 -0.9004,1.671371 -1.85743,1.599609 -0.95703,-0.07176 -1.67137,-0.900394 -1.59961,-1.857421 0.0717,-0.957013 0.9004,-1.671371 1.85743,-1.59961 z"
             id="path1024" />
        </g>
        <g
           id="path1010">
          <path
             style="color:#000000;fill:#ebcb8b;fill-rule:evenodd;stroke-width:0.4pt;-inkscape-stroke:none"
             d="m 79.525239,178.79954 c 0.03519,1.10344 -0.831793,2.02755 -1.935232,2.06274 -1.103439,0.0352 -2.027545,-0.83179 -2.062735,-1.93523 -0.03519,-1.10344 0.831793,-2.02755 1.935232,-2.06274 1.103439,-0.0352 2.027544,0.83179 2.062735,1.93523 z"
             id="path1014" />
          <path
             style="color:#000000;fill:#ebcb8b;fill-rule:evenodd;-inkscape-stroke:none"
             d="m 77.453125,176.59766 c -1.247649,0.0398 -2.233148,1.09024 -2.193359,2.33789 0.03979,1.24765 1.09024,2.23316 2.33789,2.19336 1.247649,-0.0398 2.233149,-1.09025 2.19336,-2.33789 -0.03979,-1.24765 -1.090241,-2.23316 -2.337891,-2.19336 z m 0.01758,0.5332 c 0.959226,-0.0306 1.756518,0.7185 1.787109,1.67773 0.03059,0.95923 -0.716554,1.75652 -1.675781,1.78711 -0.959226,0.0306 -1.758471,-0.7185 -1.789062,-1.67773 -0.03059,-0.95923 0.718507,-1.75652 1.677734,-1.78711 z"
             id="path1016" />
        </g>
        <g
           id="path1002">
          <path
             style="color:#000000;fill:#ebcb8b;fill-rule:evenodd;stroke-width:0.4pt;-inkscape-stroke:none"
             d="m 60.596545,134.15471 c -0.09627,1.09979 -1.066981,1.91425 -2.166776,1.81798 -1.099795,-0.0963 -1.914254,-1.06698 -1.817989,-2.16677 0.09626,-1.0998 1.06698,-1.91426 2.166775,-1.81799 1.099795,0.0963 1.914255,1.06698 1.81799,2.16678 z"
             id="path1006" />
          <path
             style="color:#000000;fill:#ebcb8b;fill-rule:evenodd;-inkscape-stroke:none"
             d="m 58.802734,131.72266 c -1.243528,-0.10886 -2.348191,0.81701 -2.457031,2.06054 -0.108846,1.24353 0.81703,2.3462 2.060547,2.45508 1.243528,0.10885 2.346227,-0.81702 2.455078,-2.06055 0.108846,-1.24353 -0.815077,-2.34619 -2.058594,-2.45507 z m -0.04687,0.53125 c 0.956072,0.0837 1.657903,0.92088 1.574219,1.87695 -0.08369,0.95606 -0.920893,1.65986 -1.876953,1.57617 -0.956071,-0.0837 -1.659856,-0.9209 -1.576172,-1.87695 0.08368,-0.95607 0.922847,-1.65986 1.878906,-1.57617 z"
             id="path1008" />
        </g>
        <g
           id="path994">
          <path
             style="color:#000000;fill:#ebcb8b;fill-rule:evenodd;stroke-width:0.4pt;-inkscape-stroke:none"
             d="m 24.104374,187.4421 c 0.927289,0.59912 1.193624,1.83795 0.594499,2.76524 -0.599126,0.92729 -1.837955,1.19362 -2.765244,0.5945 -0.927288,-0.59913 -1.193624,-1.83796 -0.594499,-2.76524 0.599126,-0.92729 1.837955,-1.19363 2.765244,-0.5945 z"
             id="path998" />
          <path
             style="color:#000000;fill:#ebcb8b;fill-rule:evenodd;-inkscape-stroke:none"
             d="m 22.542969,186.9082 c -0.567748,0.12206 -1.089022,0.46014 -1.427735,0.98438 -0.677426,1.04847 -0.374646,2.45538 0.673828,3.13281 1.048477,0.67742 2.45734,0.37465 3.134766,-0.67383 0.677425,-1.04848 0.37465,-2.45539 -0.673828,-3.13281 -0.524239,-0.33872 -1.139284,-0.43261 -1.707031,-0.31055 z m 0.111328,0.51758 c 0.43327,-0.0932 0.901638,-0.0202 1.304687,0.24024 0.806098,0.52081 1.036449,1.59038 0.515625,2.39648 -0.520824,0.8061 -1.590384,1.03644 -2.396484,0.51562 -0.806099,-0.52082 -1.036447,-1.59039 -0.515625,-2.39648 0.260413,-0.40305 0.658527,-0.66271 1.091797,-0.75586 z"
             id="path1000" />
        </g>
      </g>
    </g>
    <g
       id="path21188">
      <path
         style="color:#000000;fill:#5e81ac;stroke-miterlimit:1;-inkscape-stroke:none"
         d="m 143.00586,27.847656 -0.91211,0.1875 L 133.4668,77.435547 95.777344,42.556641 94.957031,42.791016 73.273437,122.15234 39.910156,71.332031 38.998047,71.537109 22.544922,189.01953 l 0.990234,0.13867 16.269531,-116.166013 33.240235,50.634763 0.90039,-0.14257 21.757813,-79.634771 37.757815,34.941407 0.83203,-0.279297 8.56836,-49.058594 46.14453,70.593755 0.83789,-0.54688 z"
         id="path1122" />
      <g
         id="g1064">
        <g
           id="path1114">
          <path
             style="color:#000000;fill:#5e81ac;fill-rule:evenodd;stroke-width:0.4pt;-inkscape-stroke:none"
             d="m 190.49755,101.41334 c -0.92408,0.60407 -2.16431,0.34436 -2.76838,-0.57971 -0.60408,-0.924079 -0.34436,-2.164314 0.57971,-2.768385 0.92408,-0.604071 2.16431,-0.344359 2.76838,0.579716 0.60407,0.924075 0.34436,2.164309 -0.57971,2.768379 z"
             id="path1118" />
          <path
             style="color:#000000;fill:#5e81ac;fill-rule:evenodd;-inkscape-stroke:none"
             d="m 189.86719,97.523437 c -0.56839,-0.119024 -1.18266,-0.02315 -1.70508,0.31836 -1.04484,0.683017 -1.33928,2.093825 -0.65625,3.138673 0.68302,1.04484 2.09187,1.33926 3.13672,0.65625 1.04484,-0.68302 1.34122,-2.091878 0.6582,-3.13672 -0.34151,-0.522421 -0.8652,-0.857538 -1.43359,-0.976563 z m -0.10938,0.517579 c 0.43376,0.09083 0.83314,0.348347 1.09571,0.75 0.52512,0.803305 0.30134,1.873314 -0.50196,2.398434 -0.80331,0.52513 -1.87331,0.30135 -2.39844,-0.50195 -0.52513,-0.803309 -0.30134,-1.873314 0.50196,-2.398438 0.40165,-0.262562 0.86897,-0.338879 1.30273,-0.248046 z"
             id="path1120" />
        </g>
        <g
           id="path1106">
          <path
             style="color:#000000;fill:#5e81ac;fill-rule:evenodd;stroke-width:0.4pt;-inkscape-stroke:none"
             d="m 144.50626,27.726527 c 0.22261,1.081325 -0.47433,2.139586 -1.55565,2.36219 -1.08133,0.222604 -2.13959,-0.474329 -2.36219,-1.555653 -0.2226,-1.081325 0.47433,-2.139586 1.55565,-2.36219 1.08133,-0.222605 2.13959,0.474328 2.36219,1.555653 z"
             id="path1110" />
          <path
             style="color:#000000;fill:#5e81ac;fill-rule:evenodd;-inkscape-stroke:none"
             d="m 142.08984,25.910156 c -1.22264,0.251697 -2.01341,1.453139 -1.76172,2.675781 0.2517,1.222644 1.45314,2.015368 2.67579,1.763672 1.22264,-0.251696 2.01537,-1.455089 1.76367,-2.677734 -0.25169,-1.222644 -1.45509,-2.013416 -2.67774,-1.761719 z m 0.10743,0.521485 c 0.94001,-0.193513 1.85336,0.409605 2.04687,1.349609 0.19352,0.940003 -0.40766,1.853364 -1.34766,2.046875 -0.94001,0.193512 -1.85336,-0.409607 -2.04687,-1.349609 -0.19351,-0.940005 0.40766,-1.853364 1.34766,-2.046875 z"
             id="path1112" />
        </g>
        <g
           id="path1098">
          <path
             style="color:#000000;fill:#5e81ac;fill-rule:evenodd;stroke-width:0.4pt;-inkscape-stroke:none"
             d="m 135.65725,77.797816 c 0.35314,1.045998 -0.20918,2.181527 -1.25518,2.534664 -1.046,0.353136 -2.18152,-0.209185 -2.53466,-1.255183 -0.35314,-1.045997 0.20918,-2.181526 1.25518,-2.534663 1.046,-0.353137 2.18153,0.209185 2.53466,1.255182 z"
             id="path1102" />
          <path
             style="color:#000000;fill:#5e81ac;fill-rule:evenodd;-inkscape-stroke:none"
             d="m 133.03711,76.289062 c -1.1827,0.399289 -1.82117,1.690349 -1.42188,2.873047 0.3993,1.182698 1.69035,1.823116 2.87305,1.423828 1.1827,-0.399288 1.82117,-1.690347 1.42188,-2.873046 -0.39928,-1.182701 -1.69035,-1.823117 -2.87305,-1.423829 z m 0.16992,0.50586 c 0.9093,-0.306985 1.89029,0.178599 2.19727,1.08789 0.30698,0.909295 -0.1786,1.890281 -1.08789,2.197266 -0.9093,0.306984 -1.89028,-0.178594 -2.19727,-1.087891 -0.30699,-0.909293 0.17859,-1.89028 1.08789,-2.197265 z"
             id="path1104" />
        </g>
        <g
           id="path1090">
          <path
             style="color:#000000;fill:#5e81ac;fill-rule:evenodd;stroke-width:0.4pt;-inkscape-stroke:none"
             d="m 97.322806,42.384387 c 0.303715,1.061402 -0.311218,2.169323 -1.37262,2.473038 -1.061401,0.303715 -2.169322,-0.311219 -2.473037,-1.37262 -0.303716,-1.061401 0.311218,-2.169322 1.37262,-2.473038 1.061401,-0.303715 2.169322,0.311219 2.473037,1.37262 z"
             id="path1094" />
          <path
             style="color:#000000;fill:#5e81ac;fill-rule:evenodd;-inkscape-stroke:none"
             d="m 94.777344,40.755859 c -1.200117,0.343409 -1.90005,1.602619 -1.556641,2.802735 0.343408,1.200116 1.602618,1.898095 2.802734,1.554687 1.200118,-0.343407 1.900049,-1.602617 1.556641,-2.802734 -0.343408,-1.200116 -1.602618,-1.898095 -2.802734,-1.554688 z m 0.146484,0.511719 c 0.922684,-0.264022 1.878557,0.266769 2.142578,1.189453 0.264022,0.922685 -0.266768,1.88051 -1.189453,2.144531 -0.922684,0.264022 -1.878556,-0.266769 -2.142578,-1.189453 -0.264023,-0.922683 0.266768,-1.880508 1.189453,-2.144531 z"
             id="path1096" />
        </g>
        <g
           id="path1082">
          <path
             style="color:#000000;fill:#5e81ac;fill-rule:evenodd;stroke-width:0.4pt;-inkscape-stroke:none"
             d="m 75.399496,123.04574 c 0.172732,1.0904 -0.572046,2.11556 -1.662449,2.28829 -1.090404,0.17273 -2.115557,-0.57205 -2.288288,-1.66245 -0.172731,-1.09041 0.572046,-2.11556 1.66245,-2.28829 1.090403,-0.17273 2.115556,0.57205 2.288287,1.66245 z"
             id="path1086" />
          <path
             style="color:#000000;fill:#5e81ac;fill-rule:evenodd;-inkscape-stroke:none"
             d="m 73.070312,121.11914 c -1.232908,0.1953 -2.08007,1.36084 -1.884765,2.59375 0.195305,1.23291 1.36084,2.08007 2.59375,1.88477 1.232909,-0.19531 2.078119,-1.36085 1.882812,-2.59375 -0.195305,-1.23291 -1.358888,-2.08007 -2.591797,-1.88477 z m 0.08203,0.52734 c 0.947895,-0.15015 1.834219,0.49352 1.984375,1.44141 0.150157,0.94789 -0.493512,1.83227 -1.441407,1.98242 -0.947896,0.15016 -1.832265,-0.49351 -1.982421,-1.4414 -0.150157,-0.94791 0.491556,-1.83227 1.439453,-1.98243 z"
             id="path1088" />
        </g>
        <g
           id="path1074">
          <path
             style="color:#000000;fill:#5e81ac;fill-rule:evenodd;stroke-width:0.4pt;-inkscape-stroke:none"
             d="m 41.404935,71.176088 c 0.241889,1.077174 -0.436024,2.147719 -1.513199,2.389609 -1.077174,0.241889 -2.147719,-0.436024 -2.389609,-1.513198 -0.241889,-1.077175 0.436024,-2.14772 1.513198,-2.389609 1.077175,-0.24189 2.14772,0.436023 2.38961,1.513198 z"
             id="path1078" />
          <path
             style="color:#000000;fill:#5e81ac;fill-rule:evenodd;-inkscape-stroke:none"
             d="m 38.957031,69.402344 c -1.21795,0.273501 -1.988345,1.491033 -1.714844,2.708984 0.273503,1.21795 1.489081,1.988345 2.707032,1.714844 1.217951,-0.273503 1.990298,-1.491034 1.716797,-2.708985 -0.273503,-1.217951 -1.491033,-1.988346 -2.708985,-1.714843 z m 0.117188,0.521484 c 0.936396,-0.210277 1.860035,0.37415 2.070312,1.310547 0.210276,0.936395 -0.37415,1.860036 -1.310547,2.070312 -0.936395,0.210276 -1.861988,-0.374151 -2.072265,-1.310546 -0.210276,-0.936397 0.376104,-1.860037 1.3125,-2.070313 z"
             id="path1080" />
        </g>
        <g
           id="path1066">
          <path
             style="color:#000000;fill:#5e81ac;fill-rule:evenodd;stroke-width:0.4pt;-inkscape-stroke:none"
             d="m 23.312528,187.14731 c 1.093332,0.15311 1.856413,1.16471 1.703307,2.25804 -0.153106,1.09333 -1.164707,1.85641 -2.258039,1.70331 -1.093332,-0.15311 -1.856414,-1.16471 -1.703308,-2.25804 0.153106,-1.09333 1.164708,-1.85642 2.25804,-1.70331 z"
             id="path1070" />
          <path
             style="color:#000000;fill:#5e81ac;fill-rule:evenodd;-inkscape-stroke:none"
             d="m 23.349609,186.88281 c -1.236221,-0.17312 -2.385478,0.69543 -2.558593,1.93164 -0.173116,1.23622 0.693468,2.38548 1.929687,2.5586 1.236219,0.17311 2.385478,-0.69543 2.558594,-1.93164 0.173115,-1.23622 -0.693469,-2.38548 -1.929688,-2.5586 z m -0.07422,0.5293 c 0.950442,0.1331 1.609658,1.00659 1.476562,1.95703 -0.133096,0.95044 -1.006588,1.6077 -1.957031,1.47461 -0.950443,-0.1331 -1.609659,-1.00659 -1.476563,-1.95703 0.133097,-0.95044 1.006591,-1.60771 1.957032,-1.47461 z"
             id="path1072" />
        </g>
      </g>
    </g>
    <g
       id="path25338">
      <path
         style="color:#000000;fill:#bf616a;stroke-miterlimit:1;-inkscape-stroke:none"
         d="m 128.68164,91.902344 -0.75976,0.208984 -30.968755,74.039062 -48,-53.75976 -0.847656,0.17578 -25.539063,76.36328 0.949219,0.3164 25.265625,-75.54687 47.955078,53.70898 0.833984,-0.13867 31.027348,-74.183593 53.84765,39.871093 0.59571,-0.80273 z"
         id="path1168" />
      <g
         id="g1126">
        <g
           id="path1160">
          <path
             style="color:#000000;fill:#bf616a;fill-rule:evenodd;stroke-width:0.4pt;-inkscape-stroke:none"
             d="m 184.31845,133.72224 c -0.65697,0.88725 -1.91024,1.07414 -2.79749,0.41717 -0.88725,-0.65697 -1.07414,-1.91025 -0.41717,-2.7975 0.65697,-0.88724 1.91025,-1.07413 2.7975,-0.41716 0.88724,0.65697 1.07413,1.91024 0.41716,2.79749 z"
             id="path1164" />
          <path
             style="color:#000000;fill:#bf616a;fill-rule:evenodd;-inkscape-stroke:none"
             d="m 182.37695,130.29297 c -0.57437,0.0857 -1.11686,0.38903 -1.48828,0.89062 -0.74283,1.00321 -0.53055,2.4271 0.47266,3.16993 1.0032,0.74282 2.42904,0.53054 3.17187,-0.47266 0.74283,-1.0032 0.53054,-2.42709 -0.47265,-3.16992 -0.50161,-0.37142 -1.10923,-0.50362 -1.6836,-0.41797 z m 0.0781,0.52344 c 0.43832,-0.0654 0.90146,0.0367 1.28711,0.32226 0.77128,0.57111 0.93244,1.65449 0.36133,2.42578 -0.57111,0.7713 -1.65254,0.93244 -2.42383,0.36133 -0.7713,-0.57111 -0.93244,-1.65449 -0.36133,-2.42578 0.28555,-0.38564 0.69839,-0.61823 1.13672,-0.68359 z"
             id="path1166" />
        </g>
        <g
           id="path1152">
          <path
             style="color:#000000;fill:#bf616a;fill-rule:evenodd;stroke-width:0.4pt;-inkscape-stroke:none"
             d="m 130.27287,91.784189 c 0.29302,1.064404 -0.33303,2.166081 -1.39743,2.459102 -1.0644,0.293021 -2.16608,-0.333029 -2.4591,-1.397433 -0.29302,-1.064403 0.33303,-2.166081 1.39743,-2.459102 1.0644,-0.29302 2.16608,0.33303 2.4591,1.397433 z"
             id="path1156" />
          <path
             style="color:#000000;fill:#bf616a;fill-rule:evenodd;-inkscape-stroke:none"
             d="m 127.74219,90.128906 c -1.20351,0.331316 -1.91335,1.583599 -1.58203,2.78711 0.33131,1.203511 1.58164,1.9153 2.78515,1.583984 1.20351,-0.331316 1.9153,-1.583598 1.58399,-2.787109 -0.33132,-1.203511 -1.5836,-1.9153 -2.78711,-1.583985 z m 0.14258,0.515625 c 0.92529,-0.254724 1.87613,0.285645 2.13085,1.210938 0.25473,0.925294 -0.28564,1.876134 -1.21093,2.130859 -0.92529,0.254725 -1.87614,-0.285643 -2.13086,-1.210937 -0.25473,-0.925294 0.28565,-1.876135 1.21094,-2.13086 z"
             id="path1158" />
        </g>
        <g
           id="path1144">
          <path
             style="color:#000000;fill:#bf616a;fill-rule:evenodd;stroke-width:0.4pt;-inkscape-stroke:none"
             d="m 99.041537,166.75135 c 0.182808,1.08876 -0.552458,2.12076 -1.641217,2.30356 -1.08876,0.18281 -2.120756,-0.55245 -2.303564,-1.64121 -0.182808,-1.08876 0.552457,-2.12076 1.641216,-2.30357 1.08876,-0.1828 2.120757,0.55246 2.303565,1.64122 z"
             id="path1148" />
          <path
             style="color:#000000;fill:#bf616a;fill-rule:evenodd;-inkscape-stroke:none"
             d="m 96.693359,164.84766 c -1.231049,0.2067 -2.066074,1.37832 -1.859375,2.60937 0.2067,1.23105 1.380279,2.06803 2.611328,1.86133 1.231052,-0.20669 2.066075,-1.38028 1.859375,-2.61133 -0.206699,-1.23105 -1.380279,-2.06606 -2.611328,-1.85937 z m 0.08789,0.52539 c 0.946469,-0.15891 1.83913,0.4754 1.998047,1.42187 0.158916,0.94647 -0.477364,1.83719 -1.423828,1.9961 -0.946468,0.15891 -1.837178,-0.47541 -1.996094,-1.42188 -0.158916,-0.94647 0.475409,-1.83718 1.421875,-1.99609 z"
             id="path1150" />
        </g>
        <g
           id="path1136">
          <path
             style="color:#000000;fill:#bf616a;fill-rule:evenodd;stroke-width:0.4pt;-inkscape-stroke:none"
             d="m 50.499627,112.32924 c 0.222638,1.08131 -0.474262,2.1396 -1.55558,2.36224 -1.081318,0.22263 -2.1396,-0.47427 -2.362238,-1.55558 -0.222638,-1.08132 0.474261,-2.1396 1.555579,-2.36224 1.081318,-0.22264 2.139601,0.47426 2.362239,1.55558 z"
             id="path1140" />
          <path
             style="color:#000000;fill:#bf616a;fill-rule:evenodd;-inkscape-stroke:none"
             d="m 48.083984,110.51172 c -1.222635,0.25174 -2.015406,1.4551 -1.763672,2.67773 0.251735,1.22263 1.4551,2.0154 2.677735,1.76368 1.222636,-0.25174 2.015407,-1.45511 1.763672,-2.67774 -0.251735,-1.22264 -1.455099,-2.01541 -2.677735,-1.76367 z m 0.107422,0.52344 c 0.939998,-0.19355 1.853334,0.40765 2.046875,1.34765 0.193541,0.93999 -0.407659,1.85333 -1.347656,2.04688 -0.939999,0.19353 -1.853334,-0.40767 -2.046875,-1.34766 -0.193541,-0.94 0.407657,-1.85333 1.347656,-2.04687 z"
             id="path1142" />
        </g>
        <g
           id="path1128">
          <path
             style="color:#000000;fill:#bf616a;fill-rule:evenodd;stroke-width:0.4pt;-inkscape-stroke:none"
             d="m 23.662368,187.22957 c 1.046998,0.35016 1.612548,1.48408 1.26239,2.53108 -0.350159,1.047 -1.484083,1.61255 -2.531081,1.26239 -1.046999,-0.35016 -1.612549,-1.48408 -1.26239,-2.53108 0.350158,-1.047 1.484083,-1.61255 2.531081,-1.26239 z"
             id="path1132" />
          <path
             style="color:#000000;fill:#bf616a;fill-rule:evenodd;-inkscape-stroke:none"
             d="m 23.746094,186.97656 c -1.183831,-0.39592 -2.471268,0.24781 -2.867188,1.43164 -0.395921,1.18384 0.245857,2.47127 1.429688,2.86719 1.18383,0.39592 2.473219,-0.24585 2.86914,-1.42969 0.39592,-1.18383 -0.247811,-2.47322 -1.43164,-2.86914 z m -0.167969,0.50586 c 0.910164,0.3044 1.398145,1.2832 1.09375,2.19336 -0.304396,0.91017 -1.283196,1.39815 -2.193359,1.09375 -0.910166,-0.3044 -1.398147,-1.28319 -1.09375,-2.19336 0.304395,-0.91016 1.283196,-1.39814 2.193359,-1.09375 z"
             id="path1134" />
        </g>
      </g>
    </g>
  </g>
</svg>
